<?xml version="1.0" standalone="no"?>
<!DOCTYPE svg PUBLIC "-//W3C//DTD SVG 20010904//EN"
 "http://www.w3.org/TR/2001/REC-SVG-20010904/DTD/svg10.dtd">
<svg version="1.0" xmlns="http://www.w3.org/2000/svg"
 width="512.000000pt" height="512.000000pt" viewBox="0 0 512.000000 512.000000"
 preserveAspectRatio="xMidYMid meet">

<g transform="translate(0.000000,512.000000) scale(0.100000,-0.100000)"
fill="#000000" stroke="none">
<path d="M2455 4432 c-136 -35 -302 -130 -433 -248 l-63 -57 3 -132 c3 -124 5
-134 31 -173 15 -23 46 -54 69 -69 39 -26 49 -28 162 -30 l121 -3 30 42 c38
54 109 91 184 96 78 6 147 -25 205 -89 l44 -49 106 0 c117 0 155 12 210 66 52
53 60 79 64 216 l4 126 -95 79 c-239 197 -454 273 -642 225z"/>
<path d="M1693 3799 c-62 -91 -151 -266 -187 -366 l-25 -73 137 69 c75 38 179
83 229 101 l93 32 -59 57 c-61 58 -106 134 -126 211 l-11 45 -51 -76z"/>
<path d="M3395 3838 c-15 -70 -68 -158 -130 -216 l-62 -58 86 -30 c47 -16 150
-60 228 -99 79 -39 143 -67 143 -63 0 20 -85 220 -122 288 -38 70 -128 210
-134 210 -1 0 -5 -15 -9 -32z"/>
<path d="M2340 3179 c-154 -17 -363 -68 -514 -126 -46 -17 -49 -20 -52 -58 -7
-86 -45 -441 -50 -463 -4 -22 -9 -20 -142 47 -164 84 -282 160 -417 268 l-101
80 -80 -101 c-250 -313 -410 -591 -509 -887 -59 -178 -64 -213 -35 -270 98
-193 320 -401 580 -546 121 -67 149 -81 240 -123 174 -78 574 -219 587 -206 2
1 -6 20 -16 42 -48 99 -81 253 -105 488 -9 82 -16 151 -16 153 0 3 35 -28 78
-67 93 -87 228 -178 320 -216 37 -15 68 -29 70 -30 2 -1 -6 -24 -17 -51 -36
-86 -41 -133 -41 -465 l0 -328 110 0 110 0 0 330 c0 279 2 336 16 370 l16 40
25 -20 c37 -29 107 -27 137 3 13 13 25 30 28 38 3 10 14 4 40 -24 31 -32 41
-37 79 -37 24 0 53 7 63 15 28 21 32 19 50 -25 14 -34 16 -90 16 -366 l0 -325
108 3 107 3 0 345 c-1 335 -2 347 -24 405 -12 33 -25 67 -27 75 -3 11 19 25
73 50 111 50 210 118 303 206 l80 77 0 -39 c0 -64 -30 -302 -50 -399 -21 -101
-52 -197 -76 -233 -15 -22 -15 -24 3 -19 291 82 494 160 720 277 322 167 558
371 668 581 l36 69 -20 82 c-58 246 -185 515 -372 788 -91 133 -246 330 -260
330 -5 0 -42 -27 -82 -61 -102 -86 -271 -197 -418 -273 -134 -70 -159 -78
-159 -47 0 33 -40 475 -44 487 -5 14 -232 90 -344 114 -211 46 -489 62 -692
39z m740 -1504 c102 -10 189 -21 193 -25 14 -12 -112 -130 -199 -187 -75 -49
-190 -102 -256 -118 -27 -7 -28 -5 -28 28 0 47 -40 94 -87 103 -48 9 -100 -17
-117 -58 -13 -29 -14 -30 -20 -10 -11 32 -64 72 -96 72 -63 0 -103 -36 -115
-103 -7 -34 -10 -36 -34 -31 -57 14 -176 69 -245 114 -94 61 -215 175 -201
188 6 6 98 17 205 26 107 9 215 18 240 20 103 9 588 -4 760 -19z"/>
</g>
</svg>
